<svg version="1.1" xmlns="http://www.w3.org/2000/svg" xmlns:xlink="http://www.w3.org/1999/xlink" width="1249" height="963"><defs><clipPath id="VHnvFLOzTTvN"><path fill="none" stroke="none" d=" M 0 0 L 1249 0 L 1249 963 L 0 963 L 0 0 Z"/></clipPath></defs><g transform="scale(1,1)" clip-path="url(#VHnvFLOzTTvN)"><g><rect fill="rgb(255,255,255)" stroke="none" x="0" y="0" width="1249" height="963" fill-opacity="1"/><path fill="rgb(153,51,0)" stroke="none" paint-order="stroke fill markers" fill-rule="evenodd" d=" M 411.1930625 390.862175 L 692.3364687500002 684.7322375000001 L 857.7830000000002 261.28167499999995 Z" fill-opacity="0.09803921568627451"/><path fill="rgb(192,192,192)" stroke="none" paint-order="stroke fill markers" fill-rule="evenodd" d=" M 116.16603124999992 158.31145625 L 51.375781249999875 440.61183125000014 L 411.1930625 390.862175 Z" fill-opacity="0.09803921568627451"/><path fill="none" stroke="rgb(0,0,0)" paint-order="fill stroke markers" d=" M 692.3364687500002 684.7322375000001 L 857.7830000000002 261.28167499999995" stroke-opacity="0.6980392156862745" stroke-linecap="round" stroke-linejoin="round" stroke-miterlimit="10" stroke-width="2.5"/><path fill="none" stroke="rgb(0,0,0)" paint-order="fill stroke markers" d=" M 857.7830000000002 261.28167499999995 L 1093.16 600.8700000000002" stroke-opacity="0.6980392156862745" stroke-linecap="round" stroke-linejoin="round" stroke-miterlimit="10" stroke-width="2.5"/><path fill="none" stroke="rgb(0,0,0)" paint-order="fill stroke markers" d=" M 1093.16 600.8700000000002 L 692.3364687500002 684.7322375000001" stroke-opacity="0.6980392156862745" stroke-linecap="round" stroke-linejoin="round" stroke-miterlimit="10" stroke-width="2.5"/><path fill="none" stroke="rgb(0,0,0)" paint-order="fill stroke markers" d=" M 411.1930625 390.862175 L 857.7830000000002 261.28167499999995" stroke-opacity="0.6980392156862745" stroke-linecap="round" stroke-linejoin="round" stroke-miterlimit="10" stroke-width="2.5"/><path fill="none" stroke="rgb(64,64,64)" paint-order="fill stroke markers" d=" M 116.16603124999992 158.31145625 L 51.375781249999875 440.61183125000014" stroke-opacity="0.6980392156862745" stroke-linecap="round" stroke-linejoin="round" stroke-miterlimit="10" stroke-width="2.5"/><path fill="none" stroke="rgb(64,64,64)" paint-order="fill stroke markers" d=" M 51.375781249999875 440.61183125000014 L 411.1930625 390.862175" stroke-opacity="0.6980392156862745" stroke-linecap="round" stroke-linejoin="round" stroke-miterlimit="10" stroke-width="2.5"/><path fill="none" stroke="rgb(64,64,64)" paint-order="fill stroke markers" d=" M 411.1930625 390.862175 L 116.16603124999992 158.31145625" stroke-opacity="0.6980392156862745" stroke-linecap="round" stroke-linejoin="round" stroke-miterlimit="10" stroke-width="2.5"/><path fill="none" stroke="rgb(0,0,0)" paint-order="fill stroke markers" d=" M 411.1930625 390.862175 L 692.3364687500002 684.7322375000001" stroke-opacity="0.6980392156862745" stroke-linecap="round" stroke-linejoin="round" stroke-miterlimit="10" stroke-width="2.5"/><path fill="none" stroke="rgb(0,0,0)" paint-order="fill stroke markers" d=" M 857.7830000000002 261.28167499999995 L 1149.3391250000004 320.2870812499999" stroke-opacity="0.6980392156862745" stroke-linejoin="round" stroke-miterlimit="10" stroke-width="2.5" stroke-dasharray="10.5,8"/><path fill="none" stroke="rgb(0,0,0)" paint-order="fill stroke markers" d=" M 1149.3391250000004 320.2870812499999 L 1093.16 600.8700000000002" stroke-opacity="0.6980392156862745" stroke-linejoin="round" stroke-miterlimit="10" stroke-width="2.5" stroke-dasharray="10.5,8"/><path fill="none" stroke="rgb(0,0,0)" paint-order="fill stroke markers" d=" M 1093.16 600.8700000000002 L 926.1800000000001 821.0900000000001" stroke-opacity="0.6980392156862745" stroke-linejoin="round" stroke-miterlimit="10" stroke-width="2.5" stroke-dasharray="10.5,8"/><path fill="none" stroke="rgb(0,0,0)" paint-order="fill stroke markers" d=" M 926.1800000000001 821.0900000000001 L 692.3364687500002 684.7322375000001" stroke-opacity="0.6980392156862745" stroke-linejoin="round" stroke-miterlimit="10" stroke-width="2.5" stroke-dasharray="10.5,8"/><path fill="none" stroke="rgb(0,0,0)" paint-order="fill stroke markers" d=" M 33.200000000000045 651.6900000000002 L 98.25016432341815 654.9023537937493" stroke-opacity="1" stroke-linecap="round" stroke-linejoin="round" stroke-miterlimit="10" stroke-width="5.5"/><path fill="rgb(0,0,0)" stroke="none" paint-order="stroke fill markers" fill-rule="evenodd" d=" M 131.20999999999998 656.5300000000002 L 97.8432527718554 663.1423127128947 L 98.65707587498089 646.6623948746038 Z" fill-opacity="1"/><path fill="none" stroke="rgb(0,0,0)" paint-order="fill stroke markers" d=" M 866.8900000000001 597.2400000000002 L 897.454206365407 707.9035058057841" stroke-opacity="0.5490196078431373" stroke-linejoin="round" stroke-miterlimit="10" stroke-width="2.5" stroke-dasharray="6.5,4"/><path fill="rgb(0,0,0)" stroke="none" paint-order="stroke fill markers" fill-rule="evenodd" d=" M 901.98 724.2900000000002 L 893.357582816853 709.0349542144323 L 901.550829913961 706.7720573971359 Z" fill-opacity="0.5490196078431373"/><path fill="none" stroke="rgb(0,0,0)" paint-order="fill stroke markers" d=" M 910.45 478.6600000000002 L 1009.0459332473038 409.74885422327424" stroke-opacity="0.5490196078431373" stroke-linejoin="round" stroke-miterlimit="10" stroke-width="2.5" stroke-dasharray="6.5,4"/><path fill="rgb(0,0,0)" stroke="none" paint-order="stroke fill markers" fill-rule="evenodd" d=" M 1022.9799105126684 400.01005154695406 L 1011.4806339163838 413.2323485396154 L 1006.6112325782237 406.2653599069331 Z" fill-opacity="0.5490196078431373"/><path fill="none" stroke="rgb(128,128,128)" paint-order="fill stroke markers" d=" M 565.0699062500005 429.0421437500001 L 228.35148067508925 347.8787447514874" stroke-opacity="0.8980392156862745" stroke-linecap="round" stroke-linejoin="round" stroke-miterlimit="10" stroke-width="3.5"/><path fill="rgb(128,128,128)" stroke="none" paint-order="stroke fill markers" fill-rule="evenodd" d=" M 209.88049999999993 343.42645625000006 L 229.4645528004611 343.26099958271504 L 227.2384085497174 352.4964899202597 Z" fill-opacity="0.8980392156862745"/><path fill="none" stroke="rgb(128,128,128)" paint-order="fill stroke markers" d=" M 127.58 599.6600000000002 L 41.320919923432825 596.9197398745766" stroke-opacity="0.8980392156862745" stroke-linecap="round" stroke-linejoin="round" stroke-miterlimit="10" stroke-width="3.5"/><path fill="rgb(128,128,128)" stroke="none" paint-order="stroke fill markers" fill-rule="evenodd" d=" M 22.330499999999915 596.3164562500001 L 41.471740829576966 592.1721348937184 L 41.170099017288685 601.6673448554349 Z" fill-opacity="0.8980392156862745"/><path fill="none" stroke="rgb(0,0,0)" paint-order="fill stroke markers" d=" M 678.1300000000001 448.4100000000002 L 832.4104638299128 509.50252218177184" stroke-opacity="1" stroke-linecap="round" stroke-linejoin="round" stroke-miterlimit="10" stroke-width="6"/><path fill="rgb(0,0,0)" stroke="none" paint-order="stroke fill markers" fill-rule="evenodd" d=" M 865.8817812500002 522.7566125000001 L 829.0969412503557 517.8703515367937 L 835.72398640947 501.13469282675 Z" fill-opacity="1"/><path fill="none" stroke="rgb(0,0,0)" paint-order="fill stroke markers" d=" M 22.310000000000002 714.6100000000002 L 113.00964964916449 717.667291561208" stroke-opacity="0.5490196078431373" stroke-linejoin="round" stroke-miterlimit="10" stroke-width="2.5" stroke-dasharray="6.5,4"/><path fill="rgb(0,0,0)" stroke="none" paint-order="stroke fill markers" fill-rule="evenodd" d=" M 130 718.2400000000002 L 112.86647253946643 721.9148791489168 L 113.15282675886255 713.4197039734992 Z" fill-opacity="0.5490196078431373"/><path fill="rgb(77,77,255)" stroke="none" paint-order="stroke fill markers" d=" M 416.1930625 390.862175 C 416.1930625 393.6235987491539 413.95448624915394 395.862175 411.1930625 395.862175 C 408.43163875084605 395.862175 406.1930625 393.6235987491539 406.1930625 390.862175 C 406.1930625 388.10075125084603 408.43163875084605 385.862175 411.1930625 385.862175 C 413.95448624915394 385.862175 416.1930625 388.10075125084603 416.1930625 390.862175 Z" fill-opacity="1"/><path fill="none" stroke="rgb(0,0,0)" paint-order="fill stroke markers" d=" M 416.1930625 390.862175 C 416.1930625 393.6235987491539 413.95448624915394 395.862175 411.1930625 395.862175 C 408.43163875084605 395.862175 406.1930625 393.6235987491539 406.1930625 390.862175 C 406.1930625 388.10075125084603 408.43163875084605 385.862175 411.1930625 385.862175 C 413.95448624915394 385.862175 416.1930625 388.10075125084603 416.1930625 390.862175 Z" stroke-opacity="1" stroke-linecap="round" stroke-linejoin="round" stroke-miterlimit="10"/><path fill="rgb(77,77,255)" stroke="none" paint-order="stroke fill markers" d=" M 697.3364687500002 684.7322375000001 C 697.3364687500002 687.4936612491541 695.0978924991542 689.7322375000001 692.3364687500002 689.7322375000001 C 689.5750450008462 689.7322375000001 687.3364687500002 687.4936612491541 687.3364687500002 684.7322375000001 C 687.3364687500002 681.9708137508461 689.5750450008462 679.7322375000001 692.3364687500002 679.7322375000001 C 695.0978924991542 679.7322375000001 697.3364687500002 681.9708137508461 697.3364687500002 684.7322375000001 Z" fill-opacity="1"/><path fill="none" stroke="rgb(0,0,0)" paint-order="fill stroke markers" d=" M 697.3364687500002 684.7322375000001 C 697.3364687500002 687.4936612491541 695.0978924991542 689.7322375000001 692.3364687500002 689.7322375000001 C 689.5750450008462 689.7322375000001 687.3364687500002 687.4936612491541 687.3364687500002 684.7322375000001 C 687.3364687500002 681.9708137508461 689.5750450008462 679.7322375000001 692.3364687500002 679.7322375000001 C 695.0978924991542 679.7322375000001 697.3364687500002 681.9708137508461 697.3364687500002 684.7322375000001 Z" stroke-opacity="1" stroke-linecap="round" stroke-linejoin="round" stroke-miterlimit="10"/><path fill="rgb(77,77,255)" stroke="none" paint-order="stroke fill markers" d=" M 862.7830000000002 261.28167499999995 C 862.7830000000002 264.0430987491539 860.5444237491542 266.28167499999995 857.7830000000002 266.28167499999995 C 855.0215762508462 266.28167499999995 852.7830000000002 264.0430987491539 852.7830000000002 261.28167499999995 C 852.7830000000002 258.520251250846 855.0215762508462 256.28167499999995 857.7830000000002 256.28167499999995 C 860.5444237491542 256.28167499999995 862.7830000000002 258.520251250846 862.7830000000002 261.28167499999995 Z" fill-opacity="1"/><path fill="none" stroke="rgb(0,0,0)" paint-order="fill stroke markers" d=" M 862.7830000000002 261.28167499999995 C 862.7830000000002 264.0430987491539 860.5444237491542 266.28167499999995 857.7830000000002 266.28167499999995 C 855.0215762508462 266.28167499999995 852.7830000000002 264.0430987491539 852.7830000000002 261.28167499999995 C 852.7830000000002 258.520251250846 855.0215762508462 256.28167499999995 857.7830000000002 256.28167499999995 C 860.5444237491542 256.28167499999995 862.7830000000002 258.520251250846 862.7830000000002 261.28167499999995 Z" stroke-opacity="1" stroke-linecap="round" stroke-linejoin="round" stroke-miterlimit="10"/><path fill="rgb(77,77,255)" stroke="none" paint-order="stroke fill markers" d=" M 1098.16 600.8700000000002 C 1098.16 603.6314237491542 1095.921423749154 605.8700000000002 1093.16 605.8700000000002 C 1090.3985762508462 605.8700000000002 1088.16 603.6314237491542 1088.16 600.8700000000002 C 1088.16 598.1085762508462 1090.3985762508462 595.8700000000002 1093.16 595.8700000000002 C 1095.921423749154 595.8700000000002 1098.16 598.1085762508462 1098.16 600.8700000000002 Z" fill-opacity="1"/><path fill="none" stroke="rgb(0,0,0)" paint-order="fill stroke markers" d=" M 1098.16 600.8700000000002 C 1098.16 603.6314237491542 1095.921423749154 605.8700000000002 1093.16 605.8700000000002 C 1090.3985762508462 605.8700000000002 1088.16 603.6314237491542 1088.16 600.8700000000002 C 1088.16 598.1085762508462 1090.3985762508462 595.8700000000002 1093.16 595.8700000000002 C 1095.921423749154 595.8700000000002 1098.16 598.1085762508462 1098.16 600.8700000000002 Z" stroke-opacity="1" stroke-linecap="round" stroke-linejoin="round" stroke-miterlimit="10"/><path fill="rgb(77,77,255)" stroke="none" paint-order="stroke fill markers" d=" M 121.16603124999992 158.31145625 C 121.16603124999992 161.07287999915397 118.92745499915388 163.31145625 116.16603124999992 163.31145625 C 113.40460750084596 163.31145625 111.16603124999992 161.07287999915397 111.16603124999992 158.31145625 C 111.16603124999992 155.55003250084602 113.40460750084596 153.31145625 116.16603124999992 153.31145625 C 118.92745499915388 153.31145625 121.16603124999992 155.55003250084602 121.16603124999992 158.31145625 Z" fill-opacity="1"/><path fill="none" stroke="rgb(0,0,0)" paint-order="fill stroke markers" d=" M 121.16603124999992 158.31145625 C 121.16603124999992 161.07287999915397 118.92745499915388 163.31145625 116.16603124999992 163.31145625 C 113.40460750084596 163.31145625 111.16603124999992 161.07287999915397 111.16603124999992 158.31145625 C 111.16603124999992 155.55003250084602 113.40460750084596 153.31145625 116.16603124999992 153.31145625 C 118.92745499915388 153.31145625 121.16603124999992 155.55003250084602 121.16603124999992 158.31145625 Z" stroke-opacity="1" stroke-linecap="round" stroke-linejoin="round" stroke-miterlimit="10"/><path fill="rgb(77,77,255)" stroke="none" paint-order="stroke fill markers" d=" M 56.375781249999875 440.61183125000014 C 56.375781249999875 443.3732549991541 54.13720499915384 445.61183125000014 51.375781249999875 445.61183125000014 C 48.614357500845905 445.61183125000014 46.375781249999875 443.3732549991541 46.375781249999875 440.61183125000014 C 46.375781249999875 437.8504075008462 48.614357500845905 435.61183125000014 51.375781249999875 435.61183125000014 C 54.13720499915384 435.61183125000014 56.375781249999875 437.8504075008462 56.375781249999875 440.61183125000014 Z" fill-opacity="1"/><path fill="none" stroke="rgb(0,0,0)" paint-order="fill stroke markers" d=" M 56.375781249999875 440.61183125000014 C 56.375781249999875 443.3732549991541 54.13720499915384 445.61183125000014 51.375781249999875 445.61183125000014 C 48.614357500845905 445.61183125000014 46.375781249999875 443.3732549991541 46.375781249999875 440.61183125000014 C 46.375781249999875 437.8504075008462 48.614357500845905 435.61183125000014 51.375781249999875 435.61183125000014 C 54.13720499915384 435.61183125000014 56.375781249999875 437.8504075008462 56.375781249999875 440.61183125000014 Z" stroke-opacity="1" stroke-linecap="round" stroke-linejoin="round" stroke-miterlimit="10"/><path fill="rgb(77,77,255)" stroke="none" paint-order="stroke fill markers" d=" M 1154.3391250000004 320.2870812499999 C 1154.3391250000004 323.04850499915386 1152.1005487491543 325.2870812499999 1149.3391250000004 325.2870812499999 C 1146.5777012508465 325.2870812499999 1144.3391250000004 323.04850499915386 1144.3391250000004 320.2870812499999 C 1144.3391250000004 317.52565750084597 1146.5777012508465 315.2870812499999 1149.3391250000004 315.2870812499999 C 1152.1005487491543 315.2870812499999 1154.3391250000004 317.52565750084597 1154.3391250000004 320.2870812499999 Z" fill-opacity="1"/><path fill="none" stroke="rgb(0,0,0)" paint-order="fill stroke markers" d=" M 1154.3391250000004 320.2870812499999 C 1154.3391250000004 323.04850499915386 1152.1005487491543 325.2870812499999 1149.3391250000004 325.2870812499999 C 1146.5777012508465 325.2870812499999 1144.3391250000004 323.04850499915386 1144.3391250000004 320.2870812499999 C 1144.3391250000004 317.52565750084597 1146.5777012508465 315.2870812499999 1149.3391250000004 315.2870812499999 C 1152.1005487491543 315.2870812499999 1154.3391250000004 317.52565750084597 1154.3391250000004 320.2870812499999 Z" stroke-opacity="1" stroke-linecap="round" stroke-linejoin="round" stroke-miterlimit="10"/><path fill="rgb(77,77,255)" stroke="none" paint-order="stroke fill markers" d=" M 931.1800000000001 821.0900000000001 C 931.1800000000001 823.8514237491542 928.9414237491541 826.0900000000001 926.1800000000001 826.0900000000001 C 923.4185762508461 826.0900000000001 921.1800000000001 823.8514237491542 921.1800000000001 821.0900000000001 C 921.1800000000001 818.3285762508461 923.4185762508461 816.0900000000001 926.1800000000001 816.0900000000001 C 928.9414237491541 816.0900000000001 931.1800000000001 818.3285762508461 931.1800000000001 821.0900000000001 Z" fill-opacity="1"/><path fill="none" stroke="rgb(0,0,0)" paint-order="fill stroke markers" d=" M 931.1800000000001 821.0900000000001 C 931.1800000000001 823.8514237491542 928.9414237491541 826.0900000000001 926.1800000000001 826.0900000000001 C 923.4185762508461 826.0900000000001 921.1800000000001 823.8514237491542 921.1800000000001 821.0900000000001 C 921.1800000000001 818.3285762508461 923.4185762508461 816.0900000000001 926.1800000000001 816.0900000000001 C 928.9414237491541 816.0900000000001 931.1800000000001 818.3285762508461 931.1800000000001 821.0900000000001 Z" stroke-opacity="1" stroke-linecap="round" stroke-linejoin="round" stroke-miterlimit="10"/><text fill="rgb(255,127,0)" stroke="none" font-family="geogebra-sans-serif, sans-serif" font-size="32px" font-style="normal" font-weight="bold" text-decoration="normal" x="803" y="225" text-anchor="start" dominant-baseline="alphabetic" fill-opacity="1">(7,3)</text><text fill="rgb(0,100,0)" stroke="none" font-family="geogebra-sans-serif, sans-serif" font-size="32px" font-style="normal" font-weight="bold" text-decoration="normal" x="613" y="728" text-anchor="start" dominant-baseline="alphabetic" fill-opacity="1">(3,1)</text><text fill="rgb(0,0,255)" stroke="none" font-family="geogebra-sans-serif, sans-serif" font-size="32px" font-style="normal" font-weight="bold" text-decoration="normal" x="343" y="445" text-anchor="start" dominant-baseline="alphabetic" fill-opacity="1">(5,4)</text><text fill="rgb(255,0,0)" stroke="none" font-family="geogebra-sans-serif, sans-serif" font-size="32px" font-style="normal" font-weight="bold" text-decoration="normal" x="1112" y="637" text-anchor="start" dominant-baseline="alphabetic" fill-opacity="1">(9,2)</text><text fill="rgb(0,0,0)" stroke="none" font-family="geogebra-sans-serif, sans-serif" font-size="32px" font-style="normal" font-weight="normal" text-decoration="normal" x="816" y="847" text-anchor="start" dominant-baseline="alphabetic" fill-opacity="1">(5,3)</text><text fill="rgb(0,0,0)" stroke="none" font-family="geogebra-sans-serif, sans-serif" font-size="32px" font-style="normal" font-weight="normal" text-decoration="normal" x="816" y="895" text-anchor="start" dominant-baseline="alphabetic" fill-opacity="1">(5,5)</text><text fill="rgb(0,0,0)" stroke="none" font-family="geogebra-sans-serif, sans-serif" font-size="32px" font-style="normal" font-weight="normal" text-decoration="normal" x="1174" y="277" text-anchor="start" dominant-baseline="alphabetic" fill-opacity="1">(5,1)</text><text fill="rgb(0,0,0)" stroke="none" font-family="geogebra-sans-serif, sans-serif" font-size="32px" font-style="normal" font-weight="normal" text-decoration="normal" x="1115" y="632" text-anchor="start" dominant-baseline="alphabetic" fill-opacity="1"></text><text fill="rgb(0,0,0)" stroke="none" font-family="geogebra-sans-serif, sans-serif" font-size="32px" font-style="normal" font-weight="normal" text-decoration="normal" x="1115" y="680" text-anchor="start" dominant-baseline="alphabetic" fill-opacity="1">(5,2)</text><text fill="rgb(0,0,0)" stroke="none" font-family="geogebra-sans-serif, sans-serif" font-size="32px" font-style="normal" font-weight="normal" text-decoration="normal" x="4" y="436" text-anchor="start" dominant-baseline="alphabetic" fill-opacity="1"></text><text fill="rgb(0,0,0)" stroke="none" font-family="geogebra-sans-serif, sans-serif" font-size="32px" font-style="normal" font-weight="normal" text-decoration="normal" x="4" y="484" text-anchor="start" dominant-baseline="alphabetic" fill-opacity="1">(7,4)</text><text fill="rgb(0,0,0)" stroke="none" font-family="geogebra-sans-serif, sans-serif" font-size="32px" font-style="normal" font-weight="normal" text-decoration="normal" x="119" y="76" text-anchor="start" dominant-baseline="alphabetic" fill-opacity="1"></text><text fill="rgb(0,0,0)" stroke="none" font-family="geogebra-sans-serif, sans-serif" font-size="32px" font-style="normal" font-weight="normal" text-decoration="normal" x="119" y="124" text-anchor="start" dominant-baseline="alphabetic" fill-opacity="1">(3,0)</text><text fill="rgb(0,0,0)" stroke="none" font-family="geogebra-sans-serif, sans-serif" font-size="32px" font-style="normal" font-weight="normal" text-decoration="normal" x="1176" y="268" text-anchor="start" dominant-baseline="alphabetic" fill-opacity="1"></text><text fill="rgb(0,0,0)" stroke="none" font-family="geogebra-sans-serif, sans-serif" font-size="32px" font-style="normal" font-weight="normal" text-decoration="normal" x="1176" y="316" text-anchor="start" dominant-baseline="alphabetic" fill-opacity="1">(5,5)</text><text fill="rgb(0,0,0)" stroke="none" font-family="geogebra-sans-serif, sans-serif" font-size="32px" font-style="normal" font-weight="normal" text-decoration="normal" x="153" y="609" text-anchor="start" dominant-baseline="alphabetic" fill-opacity="1">5 wave transfer</text><text fill="rgb(0,0,0)" stroke="none" font-family="geogebra-sans-serif, sans-serif" font-size="32px" font-style="normal" font-weight="normal" text-decoration="normal" x="149" y="667" text-anchor="start" dominant-baseline="alphabetic" fill-opacity="1">4 wave transfer</text><text fill="rgb(0,0,0)" stroke="none" font-family="geogebra-sans-serif, sans-serif" font-size="32px" font-style="normal" font-weight="normal" text-decoration="normal" x="146" y="728" text-anchor="start" dominant-baseline="alphabetic" fill-opacity="1">Secondary transfers</text></g></g></svg>