<svg version="1.1" xmlns="http://www.w3.org/2000/svg" xmlns:xlink="http://www.w3.org/1999/xlink" width="1119" height="963"><defs><clipPath id="nQkDZAnnXXvk"><path fill="none" stroke="none" d=" M 0 0 L 1119 0 L 1119 963 L 0 963 L 0 0 Z"/></clipPath></defs><g transform="scale(1,1)" clip-path="url(#nQkDZAnnXXvk)"><g><rect fill="rgb(255,255,255)" stroke="none" x="0" y="0" width="1119" height="963" fill-opacity="1"/><path fill="rgb(153,51,0)" stroke="none" paint-order="stroke fill markers" fill-rule="evenodd" d=" M 299.26823064132583 429.26317868860525 L 613.4086645765719 718.793532545975 L 701.7154225030697 332.2705101463864 Z" fill-opacity="0.09803921568627451"/><path fill="none" stroke="rgb(0,0,0)" paint-order="fill stroke markers" d=" M 613.4086645765719 718.793532545975 L 242.80981163913876 754.9848267781463" stroke-opacity="0.6980392156862745" stroke-linecap="round" stroke-linejoin="round" stroke-miterlimit="10" stroke-width="2.5"/><path fill="none" stroke="rgb(0,0,0)" paint-order="fill stroke markers" d=" M 242.80981163913876 754.9848267781463 L 299.26823064132583 429.26317868860525" stroke-opacity="0.6980392156862745" stroke-linecap="round" stroke-linejoin="round" stroke-miterlimit="10" stroke-width="2.5"/><path fill="none" stroke="rgb(0,0,0)" paint-order="fill stroke markers" d=" M 299.26823064132583 429.26317868860525 L 613.4086645765719 718.793532545975" stroke-opacity="0.6980392156862745" stroke-linecap="round" stroke-linejoin="round" stroke-miterlimit="10" stroke-width="2.5"/><path fill="none" stroke="rgb(0,0,0)" paint-order="fill stroke markers" d=" M 613.4086645765719 718.793532545975 L 701.7154225030697 332.2705101463864" stroke-opacity="0.6980392156862745" stroke-linecap="round" stroke-linejoin="round" stroke-miterlimit="10" stroke-width="2.5"/><path fill="none" stroke="rgb(0,0,0)" paint-order="fill stroke markers" d=" M 701.7154225030697 332.2705101463864 L 926.8830284090908 637.3681539772731" stroke-opacity="0.6980392156862745" stroke-linecap="round" stroke-linejoin="round" stroke-miterlimit="10" stroke-width="2.5"/><path fill="none" stroke="rgb(0,0,0)" paint-order="fill stroke markers" d=" M 926.8830284090908 637.3681539772731 L 613.4086645765719 718.793532545975" stroke-opacity="0.6980392156862745" stroke-linecap="round" stroke-linejoin="round" stroke-miterlimit="10" stroke-width="2.5"/><path fill="none" stroke="rgb(0,0,0)" paint-order="fill stroke markers" d=" M 299.26823064132583 429.26317868860525 L 701.7154225030697 332.2705101463864" stroke-opacity="0.6980392156862745" stroke-linecap="round" stroke-linejoin="round" stroke-miterlimit="10" stroke-width="2.5"/><path fill="none" stroke="rgb(0,0,0)" paint-order="fill stroke markers" d=" M 740.8274034090908 539.1400289772729 L 596.3742784090908 505.6269039772729" stroke-opacity="0.6980392156862745" stroke-linecap="round" stroke-linejoin="round" stroke-miterlimit="10" stroke-width="2.5"/><path fill="none" stroke="rgb(0,0,0)" paint-order="fill stroke markers" d=" M 414 64 L 299.26823064132583 429.26317868860525" stroke-opacity="0.6980392156862745" stroke-linecap="round" stroke-linejoin="round" stroke-miterlimit="10" stroke-width="2.5"/><path fill="none" stroke="rgb(0,0,0)" paint-order="fill stroke markers" d=" M 414 64 L 701.7154225030697 332.2705101463864" stroke-opacity="0.6980392156862745" stroke-linecap="round" stroke-linejoin="round" stroke-miterlimit="10" stroke-width="2.5"/><path fill="none" stroke="rgb(0,0,0)" paint-order="fill stroke markers" d=" M 596.3742784090908 505.6269039772729 L 708.6811845361119 531.6821061987417" stroke-opacity="1" stroke-linecap="round" stroke-linejoin="round" stroke-miterlimit="10" stroke-width="5.5"/><path fill="rgb(0,0,0)" stroke="none" paint-order="stroke fill markers" fill-rule="evenodd" d=" M 740.8274034090908 539.1400289772729 L 706.8167038414791 539.7186609169864 L 710.5456652307447 523.645551480497 Z" fill-opacity="1"/><path fill="none" stroke="rgb(0,0,0)" paint-order="fill stroke markers" d=" M 515.8290006811725 510.1946078386202 L 413.3101340484527 615.4115688139508" stroke-opacity="0.5490196078431373" stroke-linejoin="round" stroke-miterlimit="10" stroke-width="2.5" stroke-dasharray="6.5,4"/><path fill="rgb(0,0,0)" stroke="none" paint-order="stroke fill markers" fill-rule="evenodd" d=" M 401.4464469616239 627.5874847427757 L 410.2661550662465 612.4456470422435 L 416.35411303065894 618.377490585658 Z" fill-opacity="0.5490196078431373"/><path fill="none" stroke="rgb(0,0,0)" paint-order="fill stroke markers" d=" M 528 448 L 492.8295016047534 329.2995679160426" stroke-opacity="0.5490196078431373" stroke-linejoin="round" stroke-miterlimit="10" stroke-width="2.5" stroke-dasharray="6.5,4"/><path fill="rgb(0,0,0)" stroke="none" paint-order="stroke fill markers" fill-rule="evenodd" d=" M 488 313 L 496.90439358376403 328.0921925148542 L 488.7546096257427 330.50694331723093 Z" fill-opacity="0.5490196078431373"/><path fill="rgb(77,77,255)" stroke="none" paint-order="stroke fill markers" d=" M 304.26823064132583 429.26317868860525 C 304.26823064132583 432.0246024377592 302.0296543904798 434.26317868860525 299.26823064132583 434.26317868860525 C 296.5068068921719 434.26317868860525 294.26823064132583 432.0246024377592 294.26823064132583 429.26317868860525 C 294.26823064132583 426.5017549394513 296.5068068921719 424.26317868860525 299.26823064132583 424.26317868860525 C 302.0296543904798 424.26317868860525 304.26823064132583 426.5017549394513 304.26823064132583 429.26317868860525 Z" fill-opacity="1"/><path fill="none" stroke="rgb(0,0,0)" paint-order="fill stroke markers" d=" M 304.26823064132583 429.26317868860525 C 304.26823064132583 432.0246024377592 302.0296543904798 434.26317868860525 299.26823064132583 434.26317868860525 C 296.5068068921719 434.26317868860525 294.26823064132583 432.0246024377592 294.26823064132583 429.26317868860525 C 294.26823064132583 426.5017549394513 296.5068068921719 424.26317868860525 299.26823064132583 424.26317868860525 C 302.0296543904798 424.26317868860525 304.26823064132583 426.5017549394513 304.26823064132583 429.26317868860525 Z" stroke-opacity="1" stroke-linecap="round" stroke-linejoin="round" stroke-miterlimit="10"/><path fill="rgb(77,77,255)" stroke="none" paint-order="stroke fill markers" d=" M 247.80981163913876 754.9848267781463 C 247.80981163913876 757.7462505273003 245.57123538829273 759.9848267781463 242.80981163913876 759.9848267781463 C 240.04838788998478 759.9848267781463 237.80981163913876 757.7462505273003 237.80981163913876 754.9848267781463 C 237.80981163913876 752.2234030289923 240.04838788998478 749.9848267781463 242.80981163913876 749.9848267781463 C 245.57123538829273 749.9848267781463 247.80981163913876 752.2234030289923 247.80981163913876 754.9848267781463 Z" fill-opacity="1"/><path fill="none" stroke="rgb(0,0,0)" paint-order="fill stroke markers" d=" M 247.80981163913876 754.9848267781463 C 247.80981163913876 757.7462505273003 245.57123538829273 759.9848267781463 242.80981163913876 759.9848267781463 C 240.04838788998478 759.9848267781463 237.80981163913876 757.7462505273003 237.80981163913876 754.9848267781463 C 237.80981163913876 752.2234030289923 240.04838788998478 749.9848267781463 242.80981163913876 749.9848267781463 C 245.57123538829273 749.9848267781463 247.80981163913876 752.2234030289923 247.80981163913876 754.9848267781463 Z" stroke-opacity="1" stroke-linecap="round" stroke-linejoin="round" stroke-miterlimit="10"/><path fill="rgb(77,77,255)" stroke="none" paint-order="stroke fill markers" d=" M 618.4086645765719 718.793532545975 C 618.4086645765719 721.554956295129 616.1700883257259 723.793532545975 613.4086645765719 723.793532545975 C 610.6472408274179 723.793532545975 608.4086645765719 721.554956295129 608.4086645765719 718.793532545975 C 608.4086645765719 716.032108796821 610.6472408274179 713.793532545975 613.4086645765719 713.793532545975 C 616.1700883257259 713.793532545975 618.4086645765719 716.032108796821 618.4086645765719 718.793532545975 Z" fill-opacity="1"/><path fill="none" stroke="rgb(0,0,0)" paint-order="fill stroke markers" d=" M 618.4086645765719 718.793532545975 C 618.4086645765719 721.554956295129 616.1700883257259 723.793532545975 613.4086645765719 723.793532545975 C 610.6472408274179 723.793532545975 608.4086645765719 721.554956295129 608.4086645765719 718.793532545975 C 608.4086645765719 716.032108796821 610.6472408274179 713.793532545975 613.4086645765719 713.793532545975 C 616.1700883257259 713.793532545975 618.4086645765719 716.032108796821 618.4086645765719 718.793532545975 Z" stroke-opacity="1" stroke-linecap="round" stroke-linejoin="round" stroke-miterlimit="10"/><path fill="rgb(77,77,255)" stroke="none" paint-order="stroke fill markers" d=" M 706.7154225030697 332.2705101463864 C 706.7154225030697 335.03193389554036 704.4768462522237 337.2705101463864 701.7154225030697 337.2705101463864 C 698.9539987539157 337.2705101463864 696.7154225030697 335.03193389554036 696.7154225030697 332.2705101463864 C 696.7154225030697 329.50908639723247 698.9539987539157 327.2705101463864 701.7154225030697 327.2705101463864 C 704.4768462522237 327.2705101463864 706.7154225030697 329.50908639723247 706.7154225030697 332.2705101463864 Z" fill-opacity="1"/><path fill="none" stroke="rgb(0,0,0)" paint-order="fill stroke markers" d=" M 706.7154225030697 332.2705101463864 C 706.7154225030697 335.03193389554036 704.4768462522237 337.2705101463864 701.7154225030697 337.2705101463864 C 698.9539987539157 337.2705101463864 696.7154225030697 335.03193389554036 696.7154225030697 332.2705101463864 C 696.7154225030697 329.50908639723247 698.9539987539157 327.2705101463864 701.7154225030697 327.2705101463864 C 704.4768462522237 327.2705101463864 706.7154225030697 329.50908639723247 706.7154225030697 332.2705101463864 Z" stroke-opacity="1" stroke-linecap="round" stroke-linejoin="round" stroke-miterlimit="10"/><path fill="rgb(77,77,255)" stroke="none" paint-order="stroke fill markers" d=" M 931.8830284090908 637.3681539772731 C 931.8830284090908 640.1295777264271 929.6444521582448 642.3681539772731 926.8830284090908 642.3681539772731 C 924.1216046599368 642.3681539772731 921.8830284090908 640.1295777264271 921.8830284090908 637.3681539772731 C 921.8830284090908 634.6067302281191 924.1216046599368 632.3681539772731 926.8830284090908 632.3681539772731 C 929.6444521582448 632.3681539772731 931.8830284090908 634.6067302281191 931.8830284090908 637.3681539772731 Z" fill-opacity="1"/><path fill="none" stroke="rgb(0,0,0)" paint-order="fill stroke markers" d=" M 931.8830284090908 637.3681539772731 C 931.8830284090908 640.1295777264271 929.6444521582448 642.3681539772731 926.8830284090908 642.3681539772731 C 924.1216046599368 642.3681539772731 921.8830284090908 640.1295777264271 921.8830284090908 637.3681539772731 C 921.8830284090908 634.6067302281191 924.1216046599368 632.3681539772731 926.8830284090908 632.3681539772731 C 929.6444521582448 632.3681539772731 931.8830284090908 634.6067302281191 931.8830284090908 637.3681539772731 Z" stroke-opacity="1" stroke-linecap="round" stroke-linejoin="round" stroke-miterlimit="10"/><path fill="rgb(77,77,255)" stroke="none" paint-order="stroke fill markers" d=" M 419 64 C 419 66.76142374915396 416.76142374915395 69 414 69 C 411.23857625084605 69 409 66.76142374915396 409 64 C 409 61.23857625084603 411.23857625084605 59 414 59 C 416.76142374915395 59 419 61.23857625084603 419 64 Z" fill-opacity="1"/><path fill="none" stroke="rgb(0,0,0)" paint-order="fill stroke markers" d=" M 419 64 C 419 66.76142374915396 416.76142374915395 69 414 69 C 411.23857625084605 69 409 66.76142374915396 409 64 C 409 61.23857625084603 411.23857625084605 59 414 59 C 416.76142374915395 59 419 61.23857625084603 419 64 Z" stroke-opacity="1" stroke-linecap="round" stroke-linejoin="round" stroke-miterlimit="10"/><text fill="rgb(255,127,0)" stroke="none" font-family="geogebra-sans-serif, sans-serif" font-size="32px" font-style="normal" font-weight="bold" text-decoration="normal" x="718" y="311" text-anchor="start" dominant-baseline="alphabetic" fill-opacity="1">(7,3)</text><text fill="rgb(0,100,0)" stroke="none" font-family="geogebra-sans-serif, sans-serif" font-size="32px" font-style="normal" font-weight="bold" text-decoration="normal" x="585" y="764" text-anchor="start" dominant-baseline="alphabetic" fill-opacity="1">(3,1)</text><text fill="rgb(0,0,255)" stroke="none" font-family="geogebra-sans-serif, sans-serif" font-size="32px" font-style="normal" font-weight="bold" text-decoration="normal" x="216" y="430" text-anchor="start" dominant-baseline="alphabetic" fill-opacity="1">(5,4)</text><text fill="rgb(255,0,0)" stroke="none" font-family="geogebra-sans-serif, sans-serif" font-size="32px" font-style="normal" font-weight="bold" text-decoration="normal" x="948" y="657" text-anchor="start" dominant-baseline="alphabetic" fill-opacity="1">(9,2)</text><text fill="rgb(0,0,0)" stroke="none" font-family="geogebra-sans-serif, sans-serif" font-size="32px" font-style="normal" font-weight="normal" text-decoration="normal" x="186" y="807" text-anchor="start" dominant-baseline="alphabetic" fill-opacity="1">(5,3)</text><text fill="rgb(0,0,0)" stroke="none" font-family="geogebra-sans-serif, sans-serif" font-size="32px" font-style="normal" font-weight="normal" text-decoration="normal" x="186" y="855" text-anchor="start" dominant-baseline="alphabetic" fill-opacity="1">(5,5)</text><text fill="rgb(0,0,0)" stroke="none" font-family="geogebra-sans-serif, sans-serif" font-size="32px" font-style="normal" font-weight="normal" text-decoration="normal" x="327" y="62" text-anchor="start" dominant-baseline="alphabetic" fill-opacity="1">(5,1)</text><text fill="rgb(0,0,0)" stroke="none" font-family="geogebra-sans-serif, sans-serif" font-size="32px" font-style="normal" font-weight="normal" text-decoration="normal" x="947" y="705" text-anchor="start" dominant-baseline="alphabetic" fill-opacity="1">(3,2)</text></g></g></svg>